PathFileType	4	(X/Y/Z)	OpenSim_Sub02_EMGStiffKnee_Accel.trc
DataRate	CameraRate	NumFrames	NumMarkers	Units	OrigDataRate	OrigDataStartFrame	OrigNumFrames
100	100	24	8	m	100	987	7890
Frame#	Time	torso_imu_offset_imu	pelvis_imu_offset_imu	tibia_r_imu_offset_imu	femur_r_imu_offset_imu	tibia_l_imu_offset_imu	femur_l_imu_offset_imu	toes_r_imu_offset_imu	toes_l_imu_offset_imu
				X1	Y1	Z1	X2	Y2	Z2	X3	Y3	Z3	X4	Y4	Z4	X5	Y5	Z5	X6	Y6	Z6	X7	Y7	Z7	X8		Y8	Z8	

987	9.86000000	7.97632663	-2.16904839	6.17470647	8.29893179	0.33982514	2.20278548	9.49999617	1.81497790	1.69950584	9.09818822	-2.84794610	1.06504106	10.03757367	-1.33968175	2.66400577	7.62981103	1.80876086	-1.20059773	6.60972113	0.38742844	7.60827616	11.70537660	-1.36374561	3.30579970
988	9.87000000	7.65240324	-2.09586049	6.15811351	8.04617971	0.24247920	2.15684197	9.66567249	0.98666217	1.82047612	8.89736229	-3.33249471	0.73485956	9.55259880	-2.38015883	3.25233112	7.31368410	2.18755537	-1.37743336	6.81411152	0.27735999	7.44766278	13.88611311	-1.38636222	2.58312393
989	9.88000000	7.40586089	-2.02975063	6.15780278	7.89678946	0.16464125	2.18380026	9.78389856	0.07643506	1.94166098	8.87216039	-3.52630838	0.39457108	9.13503361	-2.91466181	3.46597024	7.38361743	2.22412189	-1.24045788	6.72093694	0.29147598	7.52876965	16.25711414	-1.90730117	0.74366372
990	9.89000000	7.31051035	-1.94316716	6.28501837	7.89260836	0.15883118	2.32919306	9.89434299	-0.94546511	2.03014460	8.65538488	-3.51024792	0.35459302	9.30340135	-3.15615546	3.38728853	7.73333737	1.73357455	-0.99662296	6.90148090	0.41340474	7.55057233	30.33314373	-7.97856458	-0.51217394
991	9.90000000	7.35487833	-1.79306938	6.47656363	8.31467049	0.13403814	2.76515222	10.21423977	-1.99845281	2.14071816	8.25913412	-3.30351457	0.44498721	10.28703707	-3.73897912	3.82931229	8.85390647	0.95536625	-0.75424142	6.85005118	0.77270465	7.68874833	53.61071202	-5.62008269	5.32481506
992	9.91000000	7.90632955	-1.54506044	6.67647260	9.08230527	-0.30140840	2.76427097	10.87996764	-2.66964951	2.29624537	7.93982322	-2.81543977	0.62298908	12.98121273	-6.70689098	5.77711571	11.21224704	0.47820088	-0.56792978	6.42037459	0.79747122	8.37899256	30.39410412	1.94869140	13.14707359
993	9.92000000	9.09881752	-1.19540574	7.36970968	10.05661105	-0.82938478	2.42929619	11.86833616	-2.84024079	2.99754609	8.16833801	-2.19771094	1.43413556	17.01630379	-15.48016920	4.64194569	12.83724001	0.01844985	-0.61944560	6.26822140	0.54266306	9.07085057	-8.62749681	-2.57152211	13.33239970
994	9.93000000	10.02601430	-0.67362309	7.84661762	10.92690421	-0.77092164	2.82247716	12.90402831	-2.18035891	3.67595499	9.26974907	-1.27224583	2.43048447	14.47276370	-19.38208041	-0.09081944	13.49222218	-1.20886265	-0.42679883	5.79909372	0.11309793	9.06657040	-0.08635005	-0.51008899	12.64685890
995	9.94000000	9.96481356	-0.39387805	7.69467148	11.14661586	-1.04498975	3.00127310	13.83481687	-0.77805891	3.46968998	10.34214631	-0.43704326	2.71191867	8.48746238	-10.79714492	3.64508873	14.86790471	-2.80962380	-0.40972431	5.72841652	0.43335086	9.10933825	6.11113224	2.57551230	13.06494995
996	9.95000000	9.44640164	-0.32073069	8.09070849	10.89950102	-1.35088558	2.84376503	14.84685342	0.00908926	2.02925066	10.41645491	0.06347164	2.43545495	7.11638166	-3.95453755	10.80834140	14.09275832	-4.19274457	-1.08662913	5.56002806	0.83523677	9.46155220	-0.45959077	0.74190506	12.54642915
997	9.96000000	8.97744429	-0.05920005	8.25314386	10.46653477	-0.99929962	3.06319235	15.30114658	-0.57968615	0.58324254	10.18944592	0.05143250	2.13566550	5.74590041	-2.64992387	7.55128545	11.84760473	-4.76805545	-1.66847868	5.19034327	-0.05680010	9.32186599	1.56560585	-1.30823396	12.27361212
998	9.97000000	8.56465198	0.32048673	8.21945071	10.11259285	-0.87236288	3.27307482	14.48558376	-0.62835479	1.12982388	10.18497338	-0.39459761	2.00115830	7.47942754	-3.14942189	0.19454238	10.80740061	-4.17492928	-2.15074732	5.87910225	-0.46899552	8.91284031	3.82650590	0.59723515	12.57390439
999	9.98000000	8.04821157	0.69573986	8.35682827	9.48990060	-0.72828399	3.39624031	13.34057499	1.72257826	1.65731340	10.19573674	-0.69741014	1.92284085	9.78093117	-3.77259504	0.14013681	10.15364169	-2.97570984	-2.32101819	8.26921767	0.36507018	8.49457378	4.18151233	-0.10560353	11.84296599
1000	9.99000000	7.60310063	1.03043341	8.15789200	8.69660571	-0.38581970	3.35097998	12.40559645	4.28000107	1.00513132	10.06053989	-0.40521211	2.11983258	12.59752553	-3.05973719	5.32975960	9.51210078	-1.73263766	-1.95880420	11.20260002	0.00560205	8.39049281	5.28726338	0.07278772	11.63140475
1001	10.00000000	7.45123199	1.24185600	8.00234877	8.34173061	-0.10466165	3.35304498	11.14901713	5.60419503	0.97656736	9.87155742	0.34392752	2.34930711	13.04606257	-1.20086633	3.40334190	8.64962805	-0.71273211	-1.50417659	14.92265427	-0.39099921	8.89547299	4.71763596	1.09287520	11.78117355
1002	10.01000000	7.44815742	1.41814666	7.77194157	8.51501438	-0.01139574	3.34273511	9.57460965	6.20726686	2.31252910	10.04926761	0.71388784	2.49150489	8.80664533	-4.05081245	-1.64013112	7.77614924	-0.52443176	-1.36351673	19.25984044	-0.11818062	9.03590582	4.32161318	1.10327224	11.80431381
1003	10.02000000	7.47686997	1.58175433	7.47237298	9.10389565	-0.13378042	3.04156647	7.98315858	7.24831414	3.32273809	10.56256166	0.23913199	2.29752302	7.44309324	-7.30140172	0.47764413	7.47030986	-1.62697494	-1.34823361	19.65639943	-0.79954299	8.26653128	3.64400181	1.20174573	11.83868368
1004	10.03000000	7.61973790	1.57176172	7.51297523	9.90828782	-0.36756138	2.80278125	6.30037386	8.66491882	2.69188705	10.81763458	-0.37328576	2.00365212	8.45710895	-6.26465143	0.51954070	7.62404549	-3.28270801	-1.54716612	15.47231843	-1.66254751	7.79720657	3.84261912	1.74911134	11.73159605
1005	10.04000000	7.80413053	1.34783644	7.78750613	10.70985600	-0.72933197	2.85047124	4.71211043	9.88773600	1.02984883	10.91188648	-0.84560168	1.88226235	10.57034520	-1.31668752	-2.83448152	7.73338102	-4.41383046	-2.37204588	9.97387850	0.83777401	14.76349439	4.24026002	1.64201092	11.59533951
1006	10.05000000	8.03192208	1.03493562	7.93772779	11.26381827	-1.20811526	3.05585847	3.46619092	9.97133286	0.70329588	11.21815854	-1.04658495	1.80858785	10.94757664	2.16926280	-2.90691728	7.95759957	-4.67918334	-3.58999967	6.60853710	2.83305596	21.73880933	4.27337079	0.90335241	11.48941926
1007	10.06000000	8.45259059	0.75578952	8.09477373	11.50744984	-1.60721233	3.34019556	2.84951077	9.43830314	1.95007323	11.89240862	-0.82090290	1.84600452	9.73832301	3.15145297	-2.03319357	8.64627999	-3.91266789	-4.63107403	6.17430549	-1.81682765	18.97403838	3.98660967	1.33926594	11.72858136
1008	10.07000000	9.13015857	0.48681442	8.46658490	11.50981736	-1.85719018	3.59867445	2.76339173	8.84798606	3.55645374	12.54104335	-0.61169269	1.66323986	9.33832559	3.70843529	-2.46761540	9.25959723	-2.53242620	-4.70394851	3.51761586	-7.08531457	16.59644136	3.57503133	1.71379983	12.02906898
1009	10.08000000	9.85413035	0.22247233	8.88862529	11.32958651	-1.82753518	3.76290970	2.93988045	7.81084397	4.66360897	12.66880614	-0.98868830	1.10204353	10.88208593	4.14208810	-2.01616335	9.36052479	-1.29130802	-3.91691466	-0.05766700	-11.88206075	11.71275667	3.75942703	1.25857134	11.84636473
1010	10.09000000	10.15348964	-0.04152229	9.05848930	11.07765602	-1.68696338	3.77126226	3.57368195	7.31853110	5.15103776	12.24900815	-1.82811446	0.80682152	11.99394206	3.81449047	-1.48775614	9.38252503	-0.49759940	-2.94678719	0.45486212	-11.71873205	10.52929603	3.71245316	1.33799106	11.89351591
